<svg width="20" height="21" viewBox="0 0 20 21" fill="none" xmlns="http://www.w3.org/2000/svg">
<g id="edit_FILL0_wght400_GRAD0_opsz24 1">
<path id="Vector" d="M4.16667 16.5833H5.35417L13.5 8.4375L12.3125 7.25L4.16667 15.3958V16.5833ZM2.5 18.25V14.7083L13.5 3.72917C13.6667 3.57639 13.8507 3.45833 14.0521 3.375C14.2535 3.29167 14.4653 3.25 14.6875 3.25C14.9097 3.25 15.125 3.29167 15.3333 3.375C15.5417 3.45833 15.7222 3.58333 15.875 3.75L17.0208 4.91667C17.1875 5.06944 17.309 5.25 17.3854 5.45833C17.4618 5.66667 17.5 5.875 17.5 6.08333C17.5 6.30556 17.4618 6.51736 17.3854 6.71875C17.309 6.92014 17.1875 7.10417 17.0208 7.27083L6.04167 18.25H2.5ZM12.8958 7.85417L12.3125 7.25L13.5 8.4375L12.8958 7.85417Z" fill="#343E46"/>
</g>
</svg>
